# xmcd CD database file
#
# Track frame offsets:
#	150
#	14820
#	31444
#	45044
#	59229
#	73745
#	86826
#	101893
#	114441
#	131549
#	144822
#	155890
#	171974
#	183335
#	199217
#	213894
#	231294
#	251045
#	268546
#
# Disc length: 3729 seconds
#
# Revision: 0
# Processed by: cddbd v1.5.2PL0 Copyright (c) Steve Scherf et al.
# Submitted via: CDex 1.51
#
DISCID=1d0e8f13
DTITLE=Alan Jackson - 34 Number One Hits - Disc 1
DYEAR=2010
DGENRE=Country
TTITLE0=Ring Of Fire
TTITLE1=Here in the Real World
TTITLE2=Wanted
TTITLE3=Chasin' That Neon Rainbow
TTITLE4=I'd Love You All Over Again
TTITLE5=Don't Rock the Jukebox
TTITLE6=Someday
TTITLE7=Dallas
TTITLE8=Midnight in Montgomery
TTITLE9=Love's Got a Hold on You
TTITLE10=She's Got the Rhythm (And I Got the Blues)
TTITLE11=Tonight I Climbed the Wall
TTITLE12=Chattahoochee
TTITLE13=(Who Says) You Can't Have It All
TTITLE14=Summertime Blues
TTITLE15=Livin' on Love
TTITLE16=Gone Country
TTITLE17=I Don't Even Know Your Name
TTITLE18=Tall, Tall Trees
EXTD=YEAR: 2010
EXTT0=
EXTT1=
EXTT2=
EXTT3=
EXTT4=
EXTT5=
EXTT6=
EXTT7=
EXTT8=
EXTT9=
EXTT10=
EXTT11=
EXTT12=
EXTT13=
EXTT14=
EXTT15=
EXTT16=
EXTT17=
EXTT18=
PLAYORDER=
